<svg width="24" height="24" viewBox="0 0 24 24" fill="none" xmlns="http://www.w3.org/2000/svg">
<path fill-rule="evenodd" clip-rule="evenodd" d="M11.3118 21.2928C11.6902 21.6901 12.3098 21.6901 12.6882 21.2928C14.6281 19.2559 20 13.2977 20 9.77778C20 5.48223 16.4183 2 12 2C7.58172 2 4 5.48223 4 9.77778C4 13.2977 9.37189 19.2559 11.3118 21.2928ZM12 13.1111C13.8935 13.1111 15.4286 11.6187 15.4286 9.77778C15.4286 7.93683 13.8935 6.44444 12 6.44444C10.1065 6.44444 8.57143 7.93683 8.57143 9.77778C8.57143 11.6187 10.1065 13.1111 12 13.1111Z" fill="#0E5978"/>
</svg>
