<svg width="190" height="160" viewBox="0 0 190 160" fill="none" xmlns="http://www.w3.org/2000/svg">
<g clip-path="url(#clip0_126_4627)">
<path d="M181.488 160.198C181.367 144.518 165.574 117.44 150.039 115.367C137.317 113.661 133.076 119.619 130.72 125.242C127.737 121.493 123.949 118.467 119.639 116.388C115.328 114.31 110.606 113.231 105.823 113.234C94.9394 113.234 88.4793 118.918 82.7185 127.268C78.7361 124.221 63.3993 116.236 52.4705 129.813C45.4025 138.606 48.2297 144.838 48.2297 144.838C48.2297 144.838 47.6825 138.666 37.4985 138.666C14.6985 138.666 16.8569 161.341 16.8569 161.341L54.3705 160.259L181.488 160.198Z" fill="#519F8D"/>
<path d="M122.117 112.899C121.867 108.465 120.726 104.128 118.762 100.148C116.797 96.1672 114.051 92.6261 110.687 89.737C113.502 82.5463 114.138 74.6826 112.516 67.1309C110.894 59.5792 107.085 52.6752 101.567 47.2837C102.701 43.66 103.027 39.8304 102.521 36.0663C102.016 32.3022 100.69 28.6957 98.6396 25.5022C96.5888 22.3086 93.8626 19.6063 90.6541 17.5865C87.4456 15.5668 83.8333 14.279 80.0732 13.8145C76.313 13.35 72.497 13.72 68.8953 14.8985C65.2937 16.0769 61.9946 18.0349 59.2318 20.6338C56.469 23.2326 54.31 26.4087 52.9078 29.9371C51.5056 33.4655 50.8945 37.2598 51.1177 41.0513C51.1177 41.8742 51.2545 42.6665 51.3761 43.4589C43.9453 48.7865 38.6011 56.546 36.2649 65.4C33.9286 74.2539 34.7465 83.6476 38.5777 91.9618C33.1943 96.4211 29.605 102.685 28.4744 109.593C27.3437 116.502 28.7483 123.587 32.4281 129.537C36.1079 135.487 41.8137 139.899 48.4888 141.956C55.164 144.012 62.3565 143.575 68.7345 140.724C73.7231 144.668 79.7414 147.084 86.0666 147.683C92.3919 148.282 98.755 147.038 104.392 144.1C110.029 141.161 114.7 136.654 117.844 131.12C120.988 125.585 122.472 119.258 122.117 112.899Z" fill="#68B480"/>
<path d="M93.0998 110.629C91.3366 114.53 89.6494 118.476 87.9166 122.392C86.1838 126.309 84.451 130.225 82.7942 134.171L79.7542 141.196L75.407 74.6667L76.927 139.017C76.3038 136.975 75.6806 134.933 75.027 132.922L71.8958 122.743L71.987 122.59L71.8198 122.484L70.923 119.634C68.0958 110.857 65.2686 102.095 62.2286 93.3638C64.5694 102.293 67.123 111.147 69.6918 120.015L70.1174 121.463L50.3574 109.577L70.8014 123.596L73.7046 133.257C74.799 136.99 75.9542 140.709 77.1094 144.427L77.4894 160.427L81.0766 160.274L79.9822 144.305L83.995 134.69C85.667 130.743 87.2326 126.75 88.859 122.789C90.4854 118.827 92.1118 114.865 93.6774 110.872L98.3894 98.9105L93.0998 110.629Z" fill="#192A40"/>
</g>
<defs>
<clipPath id="clip0_126_4627">
<rect width="190" height="160" fill="white"/>
</clipPath>
</defs>
</svg>
