<svg width="190" height="160" viewBox="0 0 190 160" fill="none" xmlns="http://www.w3.org/2000/svg">
<g clip-path="url(#clip0_126_4631)">
<path d="M127.574 94.6439C146.361 94.6439 161.591 79.3755 161.591 60.541C161.591 41.7065 146.361 26.4382 127.574 26.4382C108.786 26.4382 93.5559 41.7065 93.5559 60.541C93.5559 79.3755 108.786 94.6439 127.574 94.6439Z" fill="#519F8D"/>
<path d="M145.053 137.615C163.841 137.615 179.071 122.347 179.071 103.512C179.071 84.6778 163.841 69.4094 145.053 69.4094C126.266 69.4094 111.036 84.6778 111.036 103.512C111.036 122.347 126.266 137.615 145.053 137.615Z" fill="#519F8D"/>
<path d="M101.323 128.274C119.372 128.274 134.003 113.606 134.003 95.5125C134.003 77.4186 119.372 62.7505 101.323 62.7505C83.2746 62.7505 68.6433 77.4186 68.6433 95.5125C68.6433 113.606 83.2746 128.274 101.323 128.274Z" fill="#519F8D"/>
<path d="M121.798 139.398L122.345 138.118L123.242 108.267L111.34 96.1066L123.287 106.225L124.154 77.0895L125.734 130.377L137.879 102.522L125.826 133.562L126.616 160.305H121.691L122.314 139.611L121.798 139.398Z" fill="#192A40"/>
<path d="M60.1008 100.007C77.3604 100.007 91.352 85.9808 91.352 68.678C91.352 51.3752 77.3604 37.3484 60.1008 37.3484C42.8413 37.3484 28.8496 51.3752 28.8496 68.678C28.8496 85.9808 42.8413 100.007 60.1008 100.007Z" fill="#68B480"/>
<path d="M76.1672 139.474C93.4268 139.474 107.418 125.448 107.418 108.145C107.418 90.842 93.4268 76.8153 76.1672 76.8153C58.9077 76.8153 44.916 90.842 44.916 108.145C44.916 125.448 58.9077 139.474 76.1672 139.474Z" fill="#68B480"/>
<path d="M35.9936 130.895C52.5732 130.895 66.0136 117.421 66.0136 100.8C66.0136 84.1788 52.5732 70.7047 35.9936 70.7047C19.414 70.7047 5.97363 84.1788 5.97363 100.8C5.97363 117.421 19.414 130.895 35.9936 130.895Z" fill="#68B480"/>
<path d="M54.796 141.105L55.2976 139.931L56.1184 112.503L45.2048 101.348L56.164 110.644L56.9696 83.8856L58.4136 132.815L69.5704 107.246L58.4896 135.741L59.2192 160.305H54.7048L55.2672 141.288L54.796 141.105Z" fill="#192A40"/>
</g>
<defs>
<clipPath id="clip0_126_4631">
<rect width="190" height="160" fill="white"/>
</clipPath>
</defs>
</svg>
