<svg width="32" height="32" viewBox="0 0 32 32" fill="none" xmlns="http://www.w3.org/2000/svg">
<path d="M26.6666 13.4683C26.6666 18.1186 20.1853 25.159 17.327 28.0377C16.5895 28.7805 15.4103 28.7805 14.6728 28.0377C11.8146 25.159 5.33325 18.1185 5.33325 13.4683C5.33325 7.50274 10.1089 2.66666 15.9999 2.66666C21.891 2.66666 26.6666 7.50274 26.6666 13.4683Z" fill="#12749D"/>
<g clip-path="url(#clip0_105_8644)">
<path fill-rule="evenodd" clip-rule="evenodd" d="M12.6666 9.88888C12.6666 9.58205 12.8531 9.33332 13.0833 9.33332H15.5833C15.8134 9.33332 15.9999 9.58205 15.9999 9.88888C15.9999 10.1957 15.8134 10.4444 15.5833 10.4444H13.0833C12.8531 10.4444 12.6666 10.1957 12.6666 9.88888Z" fill="white"/>
<path fill-rule="evenodd" clip-rule="evenodd" d="M13.3849 9.49604C13.6018 9.27908 13.9536 9.27908 14.1705 9.49604L16.3928 11.7183C16.6097 11.9352 16.6097 12.287 16.3928 12.5039C16.1758 12.7209 15.824 12.7209 15.6071 12.5039L13.3849 10.2817C13.1679 10.0648 13.1679 9.713 13.3849 9.49604Z" fill="white"/>
<path fill-rule="evenodd" clip-rule="evenodd" d="M17.5106 7.66666H20.4444C20.7512 7.66666 20.9999 7.91539 20.9999 8.22221C20.9999 8.52904 20.7512 8.77777 20.4444 8.77777H18.9337L20.4444 13.0768C20.5188 13.3745 20.3378 13.6761 20.0401 13.7505C19.7425 13.8249 19.4408 13.6439 19.3664 13.3463L17.5106 7.66666Z" fill="white"/>
<path fill-rule="evenodd" clip-rule="evenodd" d="M19.24 10.1363C19.4102 10.3916 19.3412 10.7365 19.0859 10.9067L13.9926 14.2096C13.7373 14.3798 13.3924 14.3108 13.2222 14.0555C13.052 13.8003 13.121 13.4553 13.3763 13.2851L18.4696 9.98224C18.7249 9.81205 19.0698 9.88103 19.24 10.1363Z" fill="white"/>
<path fill-rule="evenodd" clip-rule="evenodd" d="M19.8888 13.7778C18.9683 13.7778 18.2221 14.524 18.2221 15.4444C18.2221 16.3649 18.9683 17.1111 19.8888 17.1111C20.8093 17.1111 21.5555 16.3649 21.5555 15.4444C21.5555 14.524 20.8093 13.7778 19.8888 13.7778ZM17.111 15.4444C17.111 13.9103 18.3547 12.6667 19.8888 12.6667C21.4229 12.6667 22.6666 13.9103 22.6666 15.4444C22.6666 16.9786 21.4229 18.2222 19.8888 18.2222C18.3547 18.2222 17.111 16.9786 17.111 15.4444Z" fill="white"/>
<path fill-rule="evenodd" clip-rule="evenodd" d="M12.111 13.7778C11.1906 13.7778 10.4444 14.524 10.4444 15.4444C10.4444 16.3649 11.1906 17.1111 12.111 17.1111C13.0315 17.1111 13.7777 16.3649 13.7777 15.4444C13.7777 14.524 13.0315 13.7778 12.111 13.7778ZM9.33325 15.4444C9.33325 13.9103 10.5769 12.6667 12.111 12.6667C13.6452 12.6667 14.8888 13.9103 14.8888 15.4444C14.8888 16.9786 13.6452 18.2222 12.111 18.2222C10.5769 18.2222 9.33325 16.9786 9.33325 15.4444Z" fill="white"/>
</g>
<defs>
<clipPath id="clip0_105_8644">
<rect width="13.3333" height="13.3333" fill="white" transform="translate(9.33325 6)"/>
</clipPath>
</defs>
</svg>
