<svg width="48" height="48" viewBox="0 0 48 48" fill="none" xmlns="http://www.w3.org/2000/svg">
<path d="M40 20.2025C40 27.5659 29.1661 38.9248 25.3281 42.7177C24.5836 43.4535 23.4164 43.4535 22.6719 42.7177C18.8339 38.9248 8 27.5659 8 20.2025C8 11.2541 15.1634 4 24 4C32.8366 4 40 11.2541 40 20.2025Z" fill="#12749D"/>
<path fill-rule="evenodd" clip-rule="evenodd" d="M19 14.8333C19 14.3731 19.2798 14 19.625 14H23.375C23.7202 14 24 14.3731 24 14.8333C24 15.2936 23.7202 15.6667 23.375 15.6667H19.625C19.2798 15.6667 19 15.2936 19 14.8333Z" fill="white"/>
<path fill-rule="evenodd" clip-rule="evenodd" d="M20.0774 14.2441C20.4028 13.9186 20.9305 13.9186 21.2559 14.2441L24.5893 17.5774C24.9147 17.9028 24.9147 18.4305 24.5893 18.7559C24.2638 19.0814 23.7362 19.0814 23.4107 18.7559L20.0774 15.4226C19.752 15.0972 19.752 14.5695 20.0774 14.2441Z" fill="white"/>
<path fill-rule="evenodd" clip-rule="evenodd" d="M26.266 11.5H30.6667C31.1269 11.5 31.5 11.8731 31.5 12.3333C31.5 12.7936 31.1269 13.1667 30.6667 13.1667H28.4007L30.6667 19.6152C30.7783 20.0617 30.5068 20.5141 30.0603 20.6258C29.6138 20.7374 29.1614 20.4659 29.0498 20.0194L26.266 11.5Z" fill="white"/>
<path fill-rule="evenodd" clip-rule="evenodd" d="M28.8601 15.2045C29.1154 15.5874 29.0119 16.1048 28.629 16.3601L20.989 21.3145C20.6061 21.5698 20.0887 21.4663 19.8334 21.0833C19.5781 20.7004 19.6816 20.183 20.0645 19.9277L27.7045 14.9734C28.0874 14.7181 28.6048 14.8216 28.8601 15.2045Z" fill="white"/>
<path fill-rule="evenodd" clip-rule="evenodd" d="M29.8333 20.6667C28.4526 20.6667 27.3333 21.786 27.3333 23.1667C27.3333 24.5474 28.4526 25.6667 29.8333 25.6667C31.214 25.6667 32.3333 24.5474 32.3333 23.1667C32.3333 21.786 31.214 20.6667 29.8333 20.6667ZM25.6667 23.1667C25.6667 20.8655 27.5321 19 29.8333 19C32.1345 19 34 20.8655 34 23.1667C34 25.4679 32.1345 27.3333 29.8333 27.3333C27.5321 27.3333 25.6667 25.4679 25.6667 23.1667Z" fill="white"/>
<path fill-rule="evenodd" clip-rule="evenodd" d="M18.1667 20.6667C16.786 20.6667 15.6667 21.786 15.6667 23.1667C15.6667 24.5474 16.786 25.6667 18.1667 25.6667C19.5474 25.6667 20.6667 24.5474 20.6667 23.1667C20.6667 21.786 19.5474 20.6667 18.1667 20.6667ZM14 23.1667C14 20.8655 15.8655 19 18.1667 19C20.4679 19 22.3333 20.8655 22.3333 23.1667C22.3333 25.4679 20.4679 27.3333 18.1667 27.3333C15.8655 27.3333 14 25.4679 14 23.1667Z" fill="white"/>
</svg>
