<svg width="20" height="20" viewBox="0 0 20 20" fill="none" xmlns="http://www.w3.org/2000/svg">
<path fill-rule="evenodd" clip-rule="evenodd" d="M10 18.3333C14.6024 18.3333 18.3334 14.6024 18.3334 10C18.3334 5.39763 14.6024 1.66667 10 1.66667C5.39765 1.66667 1.66669 5.39763 1.66669 10C1.66669 14.6024 5.39765 18.3333 10 18.3333ZM14.1248 12.9463C14.4503 13.2717 14.4503 13.7993 14.1248 14.1248C13.7994 14.4502 13.2718 14.4502 12.9463 14.1248L10 11.1785L7.05375 14.1248C6.72831 14.4502 6.20067 14.4502 5.87523 14.1248C5.5498 13.7993 5.5498 13.2717 5.87523 12.9463L8.82154 9.99997L5.87526 7.0537C5.54982 6.72826 5.54982 6.20062 5.87526 5.87518C6.2007 5.54975 6.72834 5.54975 7.05377 5.87518L10 8.82146L12.9463 5.8752C13.2717 5.54976 13.7994 5.54976 14.1248 5.8752C14.4503 6.20064 14.4503 6.72828 14.1248 7.05371L11.1786 9.99997L14.1248 12.9463Z" fill="#7B7B7B"/>
</svg>
